<?xml version="1.0" encoding="utf-8"?>
<!-- Svg Vector Icons : http://www.onlinewebfonts.com/icon -->
<!DOCTYPE svg PUBLIC "-//W3C//DTD SVG 1.1//EN" "http://www.w3.org/Graphics/SVG/1.1/DTD/svg11.dtd">
<svg version="1.1" xmlns="http://www.w3.org/2000/svg" xmlns:xlink="http://www.w3.org/1999/xlink" x="0px" y="0px" viewBox="0 0 256 256" enable-background="new 0 0 256 256" xml:space="preserve">
<metadata> Svg Vector Icons : http://www.onlinewebfonts.com/icon </metadata>
<g><g><path fill="#000000" d="M229.1,111.1H26.9c-9.3,0-16.9,7.5-16.9,16.9c0,9.3,7.5,16.9,16.9,16.9h202.3c9.3,0,16.9-7.5,16.9-16.9C246,118.7,238.5,111.1,229.1,111.1 M26.9,77.4h202.3c9.3,0,16.9-7.5,16.9-16.9c0-9.3-7.5-16.9-16.9-16.9H26.9c-9.3,0-16.9,7.5-16.9,16.9C10,69.9,17.5,77.4,26.9,77.4 M229.1,178.6H26.9c-9.3,0-16.9,7.5-16.9,16.9c0,9.3,7.5,16.9,16.9,16.9h202.3c9.3,0,16.9-7.5,16.9-16.9C246,186.1,238.5,178.6,229.1,178.6L229.1,178.6z"/></g></g>
</svg>